<svg width="479" height="512" viewBox="0 0 479 512" fill="none" xmlns="http://www.w3.org/2000/svg"><g clip-path="url(#clip0_1305_21614)"><path d="M453.859 165.705C456.759 161.283 459.35 156.585 461.56 151.576C482.557 103.976 462.251 47.7739 416.25 26.0808C409.067 22.6955 401.642 20.3466 394.182 18.9648C394.286 18.9994 394.389 19.0339 394.493 19.103C396.151 19.6903 397.808 20.3466 399.431 21.072C419.255 30.1223 432.827 47.7394 438.525 68.6726C440.424 75.6503 441.461 82.9735 441.53 90.5039C441.599 94.7873 441.322 99.1397 440.77 103.527C440.459 105.841 440.079 108.19 439.596 110.539C438.145 117.448 435.935 124.391 432.827 131.161C432.827 131.161 432.827 131.161 432.827 131.196C428.786 140.039 423.606 147.846 417.631 154.685C417.01 155.411 416.423 156.171 415.766 156.861C416.699 159.418 417.562 162.008 418.391 164.634C420.429 170.99 422.225 177.449 423.744 184.012C424.435 187.121 425.091 190.23 425.678 193.339C427.37 202.32 428.51 211.474 429.201 220.732C429.201 221.146 429.27 221.526 429.304 221.941C430.133 234.515 430.029 247.296 428.959 260.18C427.854 273.203 425.747 286.364 422.57 299.456C421.776 302.738 420.912 306.019 419.98 309.266C417.217 319.077 413.833 328.852 409.861 338.559C408.549 341.806 407.133 345.019 405.682 348.231C399.086 362.705 391.385 376.28 382.786 388.854C380.644 391.997 378.434 395.106 376.155 398.112C367.107 410.202 357.161 421.325 346.524 431.377C335.887 441.429 324.56 450.375 312.714 458.217C306.774 462.12 300.731 465.747 294.549 469.063C288.367 472.379 282.082 475.419 275.727 478.148C272.55 479.495 269.338 480.808 266.092 482.017C259.634 484.435 253.107 486.542 246.511 488.304C243.23 489.202 239.914 489.996 236.599 490.722C229.968 492.173 223.269 493.313 216.569 494.107C213.219 494.522 209.869 494.833 206.485 495.04C203.135 495.282 199.75 495.42 196.4 495.489C172.848 495.903 149.26 492.069 126.605 483.606C131.026 485.955 135.515 488.2 140.143 490.307C260.463 545.197 402.471 492.138 457.381 371.79C488.532 303.428 484.905 228.09 453.893 165.705H453.859Z" fill="#424951"></path><path d="M206.485 495.074C209.835 494.832 213.219 494.521 216.569 494.141C223.269 493.346 229.969 492.206 236.599 490.756C239.915 490.03 243.23 489.201 246.511 488.338C253.107 486.541 259.634 484.469 266.092 482.051C269.304 480.842 272.516 479.564 275.727 478.182C282.082 475.453 288.367 472.413 294.549 469.097C300.731 465.781 306.774 462.154 312.714 458.25C324.56 450.444 335.922 441.462 346.524 431.41C357.161 421.358 367.072 410.27 376.155 398.145C378.434 395.105 380.645 392.031 382.786 388.888C391.385 376.279 399.086 362.738 405.682 348.265C407.133 345.052 408.549 341.84 409.861 338.593C413.833 328.886 417.217 319.11 419.98 309.3C420.912 306.018 421.776 302.737 422.57 299.49C425.747 286.398 427.854 273.237 428.959 260.214C430.064 247.329 430.168 234.548 429.304 221.975C429.304 221.56 429.235 221.18 429.201 220.766C428.545 211.508 427.37 202.354 425.678 193.373C425.091 190.229 424.435 187.12 423.744 184.046C422.259 177.483 420.463 170.989 418.391 164.667C417.562 162.077 416.699 159.451 415.767 156.895C416.423 156.204 417.01 155.444 417.632 154.719C423.606 147.879 428.821 140.038 432.827 131.23C432.827 131.23 432.827 131.23 432.827 131.195C435.901 124.424 438.145 117.516 439.596 110.573C440.079 108.224 440.459 105.909 440.77 103.56C441.323 99.2079 441.599 94.8555 441.53 90.5376C441.426 83.0417 440.425 75.684 438.525 68.7062C432.827 47.773 419.255 30.156 399.432 21.1056C397.808 20.3457 396.151 19.7239 394.493 19.1367C394.389 19.1021 394.286 19.0676 394.182 18.9985C365.38 13.7134 335.922 23.1782 315.028 43.766C316.893 44.6641 318.723 45.6313 320.554 46.564C321.935 47.2549 323.317 47.9112 324.663 48.6366C328.842 50.2256 333.021 51.9528 337.165 53.8181C344.625 48.2912 353.086 44.7332 361.754 43.4897C363.93 43.1788 366.105 43.0061 368.281 43.0061C371.562 43.0061 374.808 43.3169 378.054 43.9733C381.301 44.6296 384.443 45.7004 387.552 47.0822C409.55 57.1342 419.98 82.938 414.005 108.431C413.591 110.193 413.073 111.954 412.52 113.716C412.106 115.029 411.588 116.341 411.07 117.654C410.655 118.656 410.345 119.692 409.861 120.694C409.585 121.281 409.274 121.868 408.963 122.456C407.547 125.357 405.959 128.121 404.197 130.677C401.193 124.908 397.947 119.312 394.459 113.854C391.834 109.778 389.071 105.806 386.17 101.937C383.994 99.0352 381.75 96.2027 379.401 93.4392C372.425 85.1488 364.758 77.4111 356.436 70.3643C349.874 64.8028 342.898 59.6559 335.507 54.9926C331.95 52.7473 328.324 50.6056 324.594 48.5675C321.037 47.2203 317.48 45.9422 313.888 44.7678C312.68 44.3878 311.506 43.9733 310.297 43.5933C267.819 30.3632 223.752 29.6378 182.587 39.7245C167.736 16.3387 144.874 -3.73095 109.856 0.586951C68.1722 5.7339 41.2349 51.1928 49.0744 98.2062C49.0744 98.2062 49.0744 98.2062 49.0744 98.2407C50.3176 105.737 52.4242 112.818 55.187 119.485C41.9947 135.409 30.5981 153.303 21.6191 173.027C20.9284 174.547 20.3067 176.067 19.6506 177.621C20.3067 176.101 20.9284 174.547 21.6191 173.027C20.9284 174.547 20.3067 176.067 19.6506 177.621C18.9944 179.176 18.3037 180.661 17.6821 182.215C-28.6293 295.863 18.7872 426.125 126.571 483.64C149.226 492.103 172.813 495.937 196.366 495.523C199.716 495.454 203.1 495.315 206.45 495.074H206.485ZM74.1467 71.5733C74.423 70.0189 74.8029 68.4644 75.1828 66.9791C76.3915 62.4539 78.1183 58.136 80.294 54.1635C81.0192 52.8509 81.779 51.5382 82.6078 50.2947C85.0598 46.564 87.9262 43.1442 91.1725 40.2081C96.8362 35.0611 103.64 31.3304 111.237 29.4651C112.308 29.1888 113.413 28.9815 114.553 28.7742C115.658 28.6015 116.728 28.4634 117.833 28.3597C118.213 28.3252 118.593 28.3252 118.973 28.2906C119.698 28.2561 120.389 28.187 121.114 28.187C121.598 28.187 122.081 28.187 122.565 28.187C123.152 28.187 123.773 28.187 124.361 28.2215C124.879 28.2215 125.431 28.2906 125.949 28.3597C126.467 28.3943 127.02 28.4288 127.538 28.4979C128.125 28.567 128.677 28.6706 129.265 28.7742C129.748 28.8433 130.197 28.9124 130.68 29.016C131.302 29.1197 131.889 29.2924 132.511 29.4306C132.925 29.5342 133.34 29.6033 133.754 29.7415C134.41 29.9142 135.032 30.1214 135.688 30.2941C136.068 30.3978 136.413 30.5014 136.793 30.6396C137.484 30.8814 138.14 31.1232 138.796 31.365C139.107 31.4686 139.418 31.6068 139.729 31.7104C140.419 31.9868 141.145 32.2977 141.835 32.6431C142.077 32.7467 142.353 32.8849 142.595 32.9885C143.32 33.334 144.046 33.7139 144.736 34.0939C144.943 34.1975 145.151 34.3357 145.392 34.4393C146.118 34.8539 146.843 35.3029 147.568 35.752C147.741 35.8556 147.913 35.9592 148.086 36.0629C148.846 36.5465 149.571 37.0646 150.296 37.5828C150.434 37.6864 150.538 37.7555 150.676 37.8591C151.436 38.4118 152.196 38.999 152.921 39.5863C153.025 39.6554 153.094 39.7245 153.197 39.7935C153.957 40.4153 154.717 41.0716 155.442 41.728C155.511 41.7625 155.546 41.8316 155.615 41.8661C156.374 42.557 157.1 43.2824 157.825 44.0424L157.894 44.1114C158.619 44.8714 159.344 45.6659 160.07 46.4949C160.588 47.0822 161.071 47.6694 161.589 48.2912C162.004 48.8093 162.418 49.362 162.833 49.9147C129.541 60.3122 100.324 79.5874 76.9095 105.149C76.1498 102.973 75.5281 100.728 74.9756 98.448C74.7338 97.4462 74.5266 96.4445 74.3194 95.4427C74.2158 94.9591 74.1122 94.51 74.0086 94.061C73.2834 89.674 73.0416 85.3561 73.1798 81.1418C73.2834 77.8602 73.6287 74.6477 74.2158 71.5388L74.1467 71.5733ZM81.1228 200.178C119.008 117.136 209.04 76.8584 282.22 110.227C284.637 111.333 286.986 112.507 289.334 113.751C289.472 113.82 289.645 113.923 289.783 113.992C317.031 128.639 337.407 152.128 349.632 180.246C352.499 186.81 354.882 193.615 356.85 200.627C367.21 237.968 364.517 280.836 346.179 321.079C308.294 404.121 218.261 444.399 145.082 411.03C71.902 377.626 43.2725 283.254 81.1573 200.178H81.1228Z" fill="#8D9098"></path><path d="M322.66 311.441C354.916 240.697 331.674 160.798 270.754 132.991C209.834 105.184 134.272 140.003 102.016 210.782C69.7605 281.527 93.0026 361.425 153.922 389.233C214.842 417.04 290.404 382.22 322.66 311.441ZM227.827 342.012C226.411 350.51 222.44 357.349 216.016 362.358C209.696 367.298 201.719 369.785 192.325 369.785C182.966 369.785 175.817 367.194 171.086 362.22C166.286 357.177 164.559 350.302 165.975 341.805C167.391 333.238 171.431 326.329 177.89 321.286C184.278 316.346 192.256 313.859 201.615 313.894C210.974 313.894 218.123 316.485 222.785 321.459C227.516 326.537 229.208 333.445 227.793 342.012H227.827ZM253.797 266.362C248.755 268.884 244.577 271.233 241.33 273.306C238.291 275.24 235.805 277.209 233.905 279.143C232.144 280.94 230.797 282.874 229.899 284.843C228.898 286.985 228.172 289.506 227.689 292.304L225.686 304.291L178.028 304.118L179.582 292.132C180.031 286.363 181.101 281.078 182.69 276.38C184.348 271.509 186.73 267.019 189.77 262.977C192.774 258.97 196.573 255.239 200.993 251.958C205.241 248.78 210.283 245.705 215.982 242.873C220.713 240.42 224.823 238.071 228.103 235.964C231.142 234.03 233.663 232.061 235.563 230.161C237.29 228.399 238.637 226.534 239.534 224.634C240.501 222.596 241.227 220.178 241.676 217.484C242.09 214.997 241.986 212.82 241.33 210.817C240.674 208.813 239.603 207.121 238.015 205.67C236.392 204.15 234.251 202.941 231.66 202.043C229.036 201.11 225.928 200.661 222.405 200.627C215.394 200.627 209.731 202.319 205.069 205.946C200.406 209.539 197.471 214.34 196.02 220.627L194.984 225.118L146.463 224.945L147.395 220.04C149.087 211.059 152.299 202.665 156.927 195.134C161.624 187.5 167.702 180.868 175.023 175.445C182.275 170.056 190.84 165.807 200.441 162.836C209.938 159.9 220.54 158.449 232.006 158.484C242.643 158.518 252.278 159.935 260.601 162.698C269.027 165.496 276.107 169.469 281.667 174.512C287.296 179.624 291.371 185.807 293.72 192.889C296.068 200.005 296.552 207.95 295.136 216.482C293.271 227.639 288.781 237.381 281.771 245.464C274.933 253.34 265.539 260.386 253.832 266.397L253.797 266.362Z" fill="#8D9098"></path></g><defs><clipPath id="clip0_1305_21614"><rect width="479" height="512" fill="white"></rect></clipPath></defs></svg>