<svg width="20" height="20" viewBox="0 0 20 20" fill="none" xmlns="http://www.w3.org/2000/svg"><path d="M16.5458 2.09004C17.7993 1.52003 18.5928 2.2053 18.9256 2.58072C19.2489 2.94543 19.8435 3.8261 19.1272 5.00224C18.8563 5.44703 18.8705 6.18403 18.8886 7.12342C18.9303 9.28903 18.9928 12.5302 15.6309 15.7466C12.0344 18.6983 8.82409 18.2474 6.67914 17.9461C5.74871 17.8154 5.01873 17.7129 4.54465 17.9285C3.29106 18.4985 2.48809 17.8025 2.16481 17.4378C1.83203 17.0624 1.24692 16.1924 1.96322 15.0163C2.23411 14.5715 2.21991 13.8345 2.20181 12.8951C2.16007 10.7295 2.09762 7.48827 5.45956 4.27195C9.05602 1.32021 12.2663 1.77112 14.4113 2.07239C15.3417 2.20308 16.0717 2.30561 16.5458 2.09004Z" fill="#8C9099"></path><path d="M19.3819 3.36397C19.5186 3.79574 19.5219 4.35413 19.1272 5.00224C18.8563 5.44703 18.8705 6.18403 18.8886 7.12342C18.9303 9.28903 18.9928 12.5302 15.6309 15.7466C12.0344 18.6983 8.8241 18.2474 6.67915 17.9461C5.74872 17.8154 5.01875 17.7129 4.54467 17.9285C4.32765 18.0271 4.12414 18.0879 3.93429 18.119C4.65418 17.668 3.79953 16.5761 3.39085 16.0539C3.3493 16.0009 3.31236 15.9537 3.28215 15.9136C3.44873 16.0888 3.9224 16.5124 4.48446 16.8055C5.18703 17.1718 7.61072 18.3308 12.9955 15.2616C16.6779 13.1628 17.3095 9.51264 17.7115 7.18911C17.8892 6.16217 18.0221 5.39438 18.3536 5.13421C19.0337 4.60062 19.3128 3.87045 19.3819 3.36397Z" fill="#414952"></path><circle cx="12.6506" cy="13.9154" r="0.694923" transform="rotate(-11.5544 12.6506 13.9154)" fill="#414952"></circle><circle cx="14.0876" cy="12.0376" r="0.694923" transform="rotate(-11.5544 14.0876 12.0376)" fill="#414952"></circle><circle cx="11.9509" cy="11.765" r="0.694923" transform="rotate(-11.5544 11.9509 11.765)" fill="#414952"></circle><circle cx="10.1857" cy="13.3081" r="0.602222" transform="rotate(-11.5544 10.1857 13.3081)" fill="#414952"></circle><circle cx="10.3391" cy="15.0974" r="0.694923" transform="rotate(-11.5544 10.3391 15.0974)" fill="#414952"></circle><circle cx="8.34497" cy="15.174" r="0.579092" transform="rotate(-11.5544 8.34497 15.174)" fill="#414952"></circle><circle cx="15.2923" cy="10.3727" r="0.35651" transform="rotate(-11.5544 15.2923 10.3727)" fill="#414952"></circle><circle cx="15.759" cy="9.09672" r="0.218218" transform="rotate(-11.5544 15.759 9.09672)" fill="#414952"></circle><circle cx="6.88299" cy="15.4729" r="0.218218" transform="rotate(-11.5544 6.88299 15.4729)" fill="#414952"></circle><path d="M9.24757 4.11518C9.7264 3.77221 11.4572 3.30884 12.3967 3.74895" stroke="#0F1923" stroke-width="1.5" stroke-linecap="round"></path></svg>